<svg width="136" height="37" viewBox="0 0 136 37" fill="none" xmlns="http://www.w3.org/2000/svg">
<path d="M7.752 0.959999V30.432H23.208V36H0.792V0.959999H7.752ZM29.7746 5.376C32.9746 2.112 37.2306 0.48 42.5426 0.48C47.8546 0.48 52.0946 2.112 55.2626 5.376C58.4626 8.608 60.0626 12.976 60.0626 18.48C60.0626 23.984 58.4626 28.368 55.2626 31.632C52.0946 34.864 47.8546 36.48 42.5426 36.48C37.2306 36.48 32.9746 34.864 29.7746 31.632C26.6066 28.368 25.0226 23.984 25.0226 18.48C25.0226 12.976 26.6066 8.608 29.7746 5.376ZM34.7666 27.696C36.6866 29.872 39.2786 30.96 42.5426 30.96C45.8066 30.96 48.3986 29.872 50.3186 27.696C52.2386 25.488 53.1986 22.416 53.1986 18.48C53.1986 14.544 52.2386 11.488 50.3186 9.312C48.3986 7.104 45.8066 6 42.5426 6C39.2786 6 36.6866 7.104 34.7666 9.312C32.8466 11.488 31.8866 14.544 31.8866 18.48C31.8866 22.416 32.8466 25.488 34.7666 27.696ZM83.1323 5.808C79.1963 5.808 76.1243 6.944 73.9163 9.216C71.7083 11.488 70.6043 14.576 70.6043 18.48C70.6043 22.384 71.7563 25.472 74.0603 27.744C76.3963 30.016 79.5323 31.152 83.4683 31.152C85.4523 31.152 87.2123 30.832 88.7483 30.192V20.112H79.0043V14.976H95.1323V33.936C91.3563 35.632 87.2603 36.48 82.8443 36.48C77.0523 36.48 72.4283 34.864 68.9723 31.632C65.5163 28.368 63.7883 23.984 63.7883 18.48C63.7883 12.944 65.4523 8.56 68.7803 5.328C72.1083 2.096 76.6843 0.48 82.5083 0.48C86.7963 0.48 90.5563 1.504 93.7883 3.552L91.7723 8.4C88.8923 6.672 86.0123 5.808 83.1323 5.808ZM104.822 5.376C108.022 2.112 112.278 0.48 117.59 0.48C122.902 0.48 127.142 2.112 130.31 5.376C133.51 8.608 135.11 12.976 135.11 18.48C135.11 23.984 133.51 28.368 130.31 31.632C127.142 34.864 122.902 36.48 117.59 36.48C112.278 36.48 108.022 34.864 104.822 31.632C101.654 28.368 100.07 23.984 100.07 18.48C100.07 12.976 101.654 8.608 104.822 5.376ZM109.814 27.696C111.734 29.872 114.326 30.96 117.59 30.96C120.854 30.96 123.446 29.872 125.366 27.696C127.286 25.488 128.246 22.416 128.246 18.48C128.246 14.544 127.286 11.488 125.366 9.312C123.446 7.104 120.854 6 117.59 6C114.326 6 111.734 7.104 109.814 9.312C107.894 11.488 106.934 14.544 106.934 18.48C106.934 22.416 107.894 25.488 109.814 27.696Z" fill="white"/>
</svg>
